<?xml version="1.0" encoding="utf-8"?>
<!-- Generator: Adobe Illustrator 19.0.1, SVG Export Plug-In . SVG Version: 6.00 Build 0)  -->
<svg version="1.1" id="Layer_1" xmlns="http://www.w3.org/2000/svg" xmlns:xlink="http://www.w3.org/1999/xlink" x="0px" y="0px"
	 viewBox="-339.7 247.2 93.7 93.7" style="enable-background:new -339.7 247.2 93.7 93.7;" xml:space="preserve">
<style type="text/css">
	.st0{fill:#4F95DB;}
</style>
<title>_</title>
<path class="st0" d="M-305.1,273.7c-3.1,0-5.6-2.5-5.6-5.7c0-3.1,2.5-5.6,5.7-5.6c3.1,0,5.6,2.5,5.6,5.6
	C-299.4,271.1-302,273.7-305.1,273.7C-305.1,273.7-305.1,273.7-305.1,273.7z M-305.1,263.7c-2.4,0-4.4,2-4.4,4.4s2,4.4,4.4,4.4
	c2.4,0,4.4-2,4.4-4.4c0,0,0,0,0,0C-300.7,265.6-302.7,263.7-305.1,263.7L-305.1,263.7z M-278.5,273.7c-3.1,0-5.6-2.5-5.6-5.7
	s2.5-5.6,5.7-5.6c3.1,0,5.6,2.5,5.6,5.6C-272.8,271.1-275.3,273.7-278.5,273.7C-278.4,273.7-278.5,273.7-278.5,273.7z M-278.5,263.7
	c-2.4,0-4.4,2-4.4,4.4s2,4.4,4.4,4.4c2.4,0,4.4-2,4.4-4.4c0,0,0,0,0,0C-274.1,265.6-276.1,263.7-278.5,263.7L-278.5,263.7z
	 M-305.1,265.3c-1.5,0-2.7,1.2-2.7,2.7s1.2,2.7,2.7,2.7c1.5,0,2.7-1.2,2.7-2.7S-303.6,265.3-305.1,265.3L-305.1,265.3z
	 M-278.5,265.3c-1.5,0-2.7,1.2-2.7,2.7s1.2,2.7,2.7,2.7c1.5,0,2.7-1.2,2.7-2.7l0,0C-275.8,266.5-277,265.3-278.5,265.3z
	 M-263.1,291.2c0-1.3,0-2.7-0.1-4.2v-0.1c-0.1-1.6,0-3.2-0.2-5c-0.5-4-1.3-7.9-2.3-11.7c0-0.1,0.1-0.3,0.1-0.5
	c1.1-4.5-0.4-9.6-4-13.8c-1.4-1.6-3-3-4.8-4.1c2.5-1.3,16-2.4,18.6-3.4l-0.4-1.2c-2.9,1.1-16.8,2.4-19.5,3.8
	c-5-2.7-10.7-3.8-16.3-3.2c-5.6-0.6-11.3,0.5-16.3,3.2c-2.7-1.5-18.6-2.7-21.5-3.8l-0.4,1.2c2.6,1,18.2,2.1,20.6,3.4
	c-1.8,1.1-3.4,2.5-4.8,4.1c-3.6,4.2-5.1,9.4-4,13.8c0.1,0.4,0.3,0.8,0.5,1.2c-0.9,3.6-1.6,7.3-2.1,11c-0.3,1.7-0.4,3.4-0.5,5
	c-0.1,1.3-0.1,2.5-0.1,3.7c-4.5,22.4,6,35.3,6,35.3s2,4.4,4.4-4.2c0.8,0.8,1.6,1.5,2.5,2.2c-0.7,3.8-1.7,13.2,15.9,16.9
	c18-3.7,16.8-13.6,16.2-17.1c0.7-0.6,1.4-1.2,2.1-1.9c2.5,8.5,4.5,4.2,4.5,4.2S-258.8,313.3-263.1,291.2z M-289.3,265.8
	c1.6-5.6,8-10.2,13.6-13.3c1.9,1.2,3.6,2.6,5.1,4.3c3.3,3.9,4.7,8.6,3.7,12.7c-0.5,2.2-1.7,4.1-3.4,5.5c-3.5,3.1-6.9,4.5-10.1,4.2
	c-2.4-0.3-4.6-1.5-6.1-3.3C-289.3,272.5-290.2,269.1-289.3,265.8z M-292.6,274.4l0.5-0.8l0.5,0.8c0.5,0.8,1.2,1.5,2,2l0.8,0.3
	l-3.3,4.8l-3.3-4.8l0.8-0.3C-293.8,275.9-293.1,275.2-292.6,274.4z M-313.5,256.8c1.5-1.7,3.2-3.1,5.1-4.3c5.6,3.1,12,7.7,13.6,13.3
	c0.9,3.3,0,6.7-2.8,10.1c-1.5,1.8-3.7,3-6.1,3.3c-3.2,0.3-6.6-1.1-10.1-4.2c-1.7-1.4-2.9-3.4-3.4-5.5
	C-318.2,265.4-316.8,260.7-313.5,256.8z"/>
</svg>
