<?xml version="1.0" encoding="utf-8"?>
<!-- Generator: Adobe Illustrator 19.0.1, SVG Export Plug-In . SVG Version: 6.00 Build 0)  -->
<svg version="1.1" id="Layer_1" xmlns="http://www.w3.org/2000/svg" xmlns:xlink="http://www.w3.org/1999/xlink" x="0px" y="0px"
	 viewBox="-348 260.3 93.7 93.7" style="enable-background:new -348 260.3 93.7 93.7;" xml:space="preserve">
<style type="text/css">
	.st0{fill:#4F95DB;}
	.st1{fill:none;stroke:#4F95DB;stroke-width:1.152;stroke-miterlimit:10;}
	.st2{fill:#FFFFFF;}

	@keyframes hideshow {
	  0% { opacity: 1; }
	  10% { opacity: 1; }
	  15% { opacity: 0; }
	  100% { opacity: 0; }
	} 

	@keyframes kaboom {
	  90% {
	    transform: scale(1.0);
	  }
	  100% {
	    transform: scale(2.0);
	  }
	}

	.tail {
	  animation: kaboom 10s ease infinite;
	}


</style>
<path id="tail" class="st0" d="M-300.4,285.2c-11.4,0-19,3.2-23.4,5.9c-3,1.8-5,5-5.2,8.6l0,0c-0.1,1.3-0.1,2.4-0.1,3.6
	c0,0.1,0,0.2,0,0.2c-4.4,22.3,6,35.2,6,35.2s1.7,3.7,3.8-2.2c0.3-0.9,1.4-1.2,2.2-0.6c0.1,0.1,0.2,0.2,0.4,0.3
	c0.4,0.3,0.6,0.8,0.5,1.2c-0.6,4.1-0.5,12.6,15.7,16.1c0.2,0,0.4,0,0.6,0c16.6-3.5,16.6-12.4,16-16.3c-0.1-0.5,0.1-0.9,0.5-1.2
	c0,0,0,0,0,0c0.7-0.6,1.8-0.3,2.2,0.6c2.2,5.8,3.9,2.2,3.9,2.2s10.2-12.7,5.9-34.8l0,0c0-1.3,0-2.7-0.1-4.2v-0.1l0,0
	c-0.2-3.6-2.1-6.8-5.2-8.7C-281.4,288.3-289,285.2-300.4,285.2z"/>
<g id="top_half">
	<path id="head" class="st0" d="M-301.6,260.9c-5.2-0.4-10.4,1.5-15.2,3.9c-1.1,0.6-2.2,1.3-3.2,2c0,0-0.1,0-0.1,0.1
		c-1.4,1.1-2.9,2.5-3.9,3.7c-3.6,4.5-5,9.8-3.7,14.4c0,0.2,0.1,0.4,0.1,0.5c-0.9,4-1,7.4-1.3,11.5c0,0-0.6,2.4,1.8,7.4
		c2.2,4.7,4.5,8.2,5.1,9c0.1,0.1,0.2,0.2,0.3,0.3c1.2,0.8,7.9,4.9,22.4,4.5h-0.7c14.5-0.5,20.9-5,22-5.9c0.1-0.1,0.2-0.2,0.3-0.3
		c0.5-0.9,2.7-4.5,4.5-9.3c2-5.2,1.3-7.6,1.3-7.6c-0.7-4.1-1-7.5-2.1-11.4c0-0.1,0.1-0.3,0.1-0.5c1-4.7-0.8-9.9-4.6-14.2
		c-1.1-1.2-2.7-2.4-4.2-3.4c-1.1-0.7-2.2-1.3-3.4-1.8C-291.1,261.7-296.5,260.2-301.6,260.9"/>
	<path id="ear_L" class="st1" d="M-320.9,267.6c-2.7-1.5-18.6-2.7-21.5-3.8"/>
	<path id="ear_R" class="st1" d="M-259.9,263.8c-2.9,1.1-18.8,2.3-21.5,3.8"/>
	<g id="beak">
		<g>
			<path id="beak_bottom" class="st2" d="M-298.4,292.4c0.3,0,0.6,0,0.9,0.1h0.3l-0.2,0.4c-0.2,0.5-0.4,0.9-0.6,1.4s-0.4,0.9-0.7,1.3
				c-0.2,0.4-0.5,0.7-0.7,1.2c0,0.1-0.1,0.1-0.1,0.2l-0.7,1.1l-0.7,1.1l-0.8-1.1c0,0,0,0,0-0.1c-0.5-0.8-1.1-1.6-1.5-2.5
				c-0.2-0.4-0.5-0.9-0.7-1.3c-0.2-0.4-0.4-0.9-0.6-1.4l-0.2-0.4h0.3c0.3,0,0.6-0.1,0.9-0.1v0.1l-0.8,0.3v-0.1l3.3,4.8h-0.2l3.3-4.8
				v0.1L-298.4,292.4L-298.4,292.4z"/>
		</g>
		<path id="beak_top" class="st2" d="M-301.5,290.4l0.5-0.8l0.5,0.8c0.5,0.8,1.2,1.5,2,2l0.8,0.3l-3.3,4.8l-3.3-4.8l0.8-0.3
			C-302.7,291.9-302,291.2-301.5,290.4z"/>
	</g>
	<g id="eye_R">
		<path id="sclera_R" class="st2" d="M-298.7,280.8L-298.7,280.8c1.5-5.4,7.5-9.8,12.9-12.9c0.4-0.3,1-0.2,1.4,0.1c1.6,1.1,3.1,2.4,4.4,3.8
			c3.3,3.9,4.7,8.6,3.7,12.7c-0.5,2.2-1.7,4.1-3.4,5.5c-3.5,3.1-6.9,4.5-10.1,4.2c-2.4-0.3-4.6-1.5-6.1-3.3
			C-298.7,287.5-299.5,284.1-298.7,280.8"/>
		<path id="iris_R" class="st0" d="M-287.5,288.4L-287.5,288.4c-3,0-5.4-2.3-5.6-5.4c-0.1-3,2.2-5.6,5.2-5.9c3.3-0.3,6.1,2.3,6.1,5.6
			C-281.9,285.8-284.4,288.4-287.5,288.4"/>
		<path id="pupil_white_R" class="st2" d="M-287.5,278.4c-2.9,0-5.1,2.8-4.2,5.8c0.4,1.3,1.5,2.3,2.8,2.8c3,1,5.8-1.3,5.8-4.2
			C-283.1,280.3-285.1,278.4-287.5,278.4z"/>
		<path id="pupil_R" class="st0" d="M-286.5,280.3c-2.4-0.9-4.6,1.4-3.5,3.8c0.2,0.5,0.6,0.8,1.1,1.1c2.4,1.1,4.7-1.1,3.8-3.5
			C-285.4,281-285.9,280.5-286.5,280.3z"/>
	</g>
	<g id="eye_L">
		<path id="sclera_L" class="st2" d="M-301.9,280c0.9,3.3,0,6.7-2.8,10.1c-1.5,1.8-3.7,3-6.1,3.3c-3.2,0.3-6.6-1.1-10.1-4.2
			c-1.7-1.4-2.9-3.3-3.4-5.5c-1-4.1,0.4-8.8,3.7-12.7c1.3-1.5,2.8-2.7,4.4-3.8c0.4-0.3,1-0.3,1.4-0.1
			C-309.4,270.2-303.5,274.6-301.9,280L-301.9,280"/>
		<path id="iris_L" class="st0" d="M-313,287.6c-3.2,0-5.7-2.6-5.7-5.7c0-3.3,2.8-5.9,6.1-5.6c3,0.3,5.3,2.9,5.2,5.9
			C-307.5,285.3-310,287.6-313,287.6C-313,287.6-313.1,287.6-313,287.6"/>
		<path id="pupil_white_L" class="st2" d="M-317.5,282c0,2.9,2.8,5.1,5.8,4.2c1.3-0.4,2.3-1.5,2.8-2.8c1-3-1.3-5.8-4.2-5.8
			C-315.5,277.6-317.5,279.5-317.5,282z"/>
		<path id="pupil_L" class="st0" d="M-315.5,280.9c-0.9,2.4,1.4,4.6,3.8,3.5c0.5-0.2,0.8-0.6,1.1-1.1c1.1-2.4-1.1-4.7-3.5-3.8
			C-314.9,279.7-315.4,280.2-315.5,280.9z"/>
	</g>
</g>
</svg>
