<?xml version="1.0" encoding="utf-8"?>
<!-- Generator: Adobe Illustrator 19.0.1, SVG Export Plug-In . SVG Version: 6.00 Build 0)  -->
<svg version="1.1" id="Layer_1" xmlns="http://www.w3.org/2000/svg" xmlns:xlink="http://www.w3.org/1999/xlink" x="0px" y="0px"
	 viewBox="-348 260.3 93.7 93.7" style="enable-background:new -348 260.3 93.7 93.7;" xml:space="preserve">
<style type="text/css">
	.st0{display:none;fill:#4F95DB;}
	.st1{fill:#4F95DB;}
	.st2{fill:none;stroke:#4F95DB;stroke-width:1.152;stroke-miterlimit:10;}
	.st3{fill:#FFFFFF;}
</style>
<path id="body" class="st0" d="M-284.6,265.4c-1-0.7-2.1-1.3-3.2-1.9c-4.7-2.2-10.3-3.3-15.3-2.8c-3.8-0.4-10.1,1.4-13.9,2.6
	c-2.1,0.7-4,1.7-5.7,3c-1.1,0.9-2.2,1.8-2.8,2.5c-3.6,4.2-5.1,9.4-4,13.8c0.1,0.4,0.3,0.8,0.5,1.2c-0.9,3.6-1.6,7.3-2.1,11
	c-0.3,1.7-0.4,3.4-0.5,5c-0.1,1.3-0.1,2.5-0.1,3.7c-4.5,22.4,6,35.3,6,35.3s2,4.4,4.4-4.2c0.8,0.8,1.6,1.5,2.5,2.2
	c-0.7,3.8-1.7,13.2,15.9,16.9c18-3.7,16.8-13.6,16.2-17.1c0.7-0.6,1.4-1.2,2.1-1.9c2.5,8.5,4.5,4.2,4.5,4.2s10.2-12.7,5.9-34.8h0
	c0-1.3,0-2.7-0.1-4.2v-0.1c-0.1-1.6,0-3.2-0.2-5c-0.5-4-1.3-7.9-2.3-11.7c0-0.1,0.1-0.3,0.1-0.5c1.1-4.5-0.4-9.6-4-13.8
	C-281.8,267.7-283.2,266.4-284.6,265.4z"/>
<path id="tail" class="st1" d="M-300,285.2c-11.4,0-19,3.2-23.4,5.9c-3,1.8-5,5-5.2,8.6c0,0,0,0,0,0c-0.1,1.3-0.1,2.5-0.1,3.7
	c-4.5,22.4,6,35.3,6,35.3s2,4.4,4.4-4.2c0.8,0.8,1.6,1.5,2.5,2.2c-0.7,3.8-2.7,13.2,14.9,16.9c18-3.7,17.8-13.6,17.2-17.1
	c0.7-0.6,1.4-1.2,2.1-1.9c2.5,8.5,4.5,4.2,4.5,4.2s10.2-12.7,5.9-34.8h0c0-1.3,0-2.7-0.1-4.2v-0.1c0,0,0,0,0,0
	c-0.2-3.6-2.1-6.8-5.2-8.7C-281,288.4-288.8,285.2-300,285.2z"/>
<g id="top_x5F_half">
	<path id="head_1_" class="st1" d="M-301.2,260.8c-5.2-0.4-10.4,1.5-15.2,3.9c-1.1,0.6-2.2,1.3-3.2,2c-1.4,1.1-2.9,2.5-3.9,3.7
		c-3.6,4.5-5,9.8-3.7,14.4c0,0.2,0.1,0.4,0.1,0.5c-0.9,4-1,7.4-1.3,11.5c0,0-0.6,2.4,1.8,7.4c2.5,5.4,5.2,9.2,5.2,9.2
		s6.5,5.1,22.6,4.6l-0.7,0c16.1-0.5,22.2-6.1,22.2-6.1s2.5-4,4.6-9.5c2-5.2,1.3-7.6,1.3-7.6c-0.7-4.1-1-7.5-2.1-11.4
		c0-0.1,0.1-0.3,0.1-0.5c1-4.7-0.8-9.9-4.6-14.2c-1.1-1.2-2.7-2.4-4.2-3.4c-1.1-0.7-2.2-1.3-3.4-1.8
		C-290.7,261.6-296.1,260.1-301.2,260.8"/>
	<path id="ear_x5F_L" class="st2" d="M-320.5,267.7c-2.7-1.5-18.6-2.7-21.5-3.8"/>
	<path id="ear_x5F_R" class="st2" d="M-259.6,263.9c-2.9,1.1-18.8,2.3-21.5,3.8"/>
	<g id="beak">
		<g>
			<path class="st3" d="M-298.1,292.4c0.3,0,0.6,0,0.9,0.1l0.3,0l-0.2,0.4c-0.2,0.5-0.4,0.9-0.6,1.4c-0.2,0.5-0.4,0.9-0.7,1.3
				c-0.2,0.4-0.5,0.8-0.7,1.3l-0.8,1.2l-0.7,1.1l-0.8-1.1c-0.5-0.8-1.1-1.6-1.5-2.5c-0.2-0.4-0.5-0.9-0.7-1.3
				c-0.2-0.4-0.4-0.9-0.6-1.4l-0.2-0.4l0.3,0c0.3,0,0.6-0.1,0.9-0.1l0,0.1l-0.8,0.3l0-0.1l3.3,4.8h-0.2l3.3-4.8l0,0.1L-298.1,292.4
				L-298.1,292.4z"/>
		</g>
		<path class="st3" d="M-301.1,290.5l0.5-0.8l0.5,0.8c0.5,0.8,1.2,1.5,2,2l0.8,0.3l-3.3,4.8l-3.3-4.8l0.8-0.3
			C-302.3,292-301.6,291.3-301.1,290.5z"/>
	</g>
	<g id="eye_x5F_R">
		<path class="st3" d="M-298.4,280.8L-298.4,280.8c1.6-5.6,8-10.2,13.6-13.3c1.9,1.2,3.6,2.6,5.1,4.3c3.3,3.9,4.7,8.6,3.7,12.7
			c-0.5,2.2-1.7,4.1-3.4,5.5c-3.5,3.1-6.9,4.5-10.1,4.2c-2.4-0.3-4.6-1.5-6.1-3.3C-298.4,287.5-299.3,284.1-298.4,280.8"/>
		<path class="st1" d="M-287.3,288.4C-287.2,288.4-287.3,288.4-287.3,288.4c-3,0-5.4-2.3-5.6-5.4c-0.1-3,2.2-5.6,5.2-5.9
			c3.3-0.3,6.1,2.3,6.1,5.6C-281.6,285.8-284.1,288.4-287.3,288.4"/>
		<path class="st3" d="M-287.2,278.4c-2.9,0-5.1,2.8-4.2,5.8c0.4,1.3,1.5,2.3,2.8,2.8c3,1,5.8-1.3,5.8-4.2
			C-282.8,280.3-284.8,278.4-287.2,278.4z"/>
		<path class="st1" d="M-286.1,280.3c-2.4-0.9-4.6,1.4-3.5,3.8c0.2,0.5,0.6,0.8,1.1,1.1c2.4,1.1,4.7-1.1,3.8-3.5
			C-285,281.1-285.5,280.5-286.1,280.3z"/>
	</g>
	<g id="eye_x5F_L">
		<path class="st3" d="M-301.6,280c0.9,3.3,0,6.7-2.8,10.1c-1.5,1.8-3.7,3-6.1,3.3c-3.2,0.3-6.6-1.1-10.1-4.2
			c-1.7-1.4-2.9-3.3-3.4-5.5c-1-4.1,0.4-8.8,3.7-12.7c1.5-1.7,3.2-3.1,5.1-4.3C-309.6,269.8-303.2,274.4-301.6,280L-301.6,280"/>
		<path class="st1" d="M-312.7,287.6c-3.2,0-5.7-2.6-5.7-5.7c0-3.3,2.8-5.9,6.1-5.6c3,0.3,5.3,2.9,5.2,5.9
			C-307.3,285.3-309.7,287.6-312.7,287.6C-312.7,287.6-312.8,287.6-312.7,287.6"/>
		<path class="st3" d="M-317.2,282c0,2.9,2.8,5.1,5.8,4.2c1.3-0.4,2.3-1.5,2.8-2.8c1-3-1.3-5.8-4.2-5.8
			C-315.2,277.6-317.2,279.5-317.2,282z"/>
		<path class="st1" d="M-315.3,280.9c-0.9,2.4,1.4,4.6,3.8,3.5c0.5-0.2,0.8-0.6,1.1-1.1c1.1-2.4-1.1-4.7-3.5-3.8
			C-314.5,279.7-315,280.3-315.3,280.9z"/>
	</g>
</g>
</svg>
