<?xml version="1.0" encoding="utf-8"?>
<!-- Generator: Adobe Illustrator 19.0.1, SVG Export Plug-In . SVG Version: 6.00 Build 0)  -->
<svg version="1.1" id="Layer_1" xmlns="http://www.w3.org/2000/svg" xmlns:xlink="http://www.w3.org/1999/xlink" x="0px" y="0px"
	 viewBox="-348 260.3 93.7 93.7" style="enable-background:new -348 260.3 93.7 93.7;" xml:space="preserve">
<style type="text/css">
	.fill-blue{fill:#4F95DB;}
	.stroke-blue{fill:none;stroke:#4F95DB;stroke-width:1.152;stroke-miterlimit:10;}
	.fill-white{fill:#FFFFFF;}
</style>
<path id="tail" class="fill-blue" d="M-648.4,545.4c-11.4,0-19,3.2-23.4,5.9c-3,1.8-5,5-5.2,8.6l0,0c-0.1,1.3-0.1,2.5-0.1,3.7
	c-4.5,22.4,6,35.3,6,35.3s2,4.4,4.4-4.2c0.8,0.8,1.6,1.5,2.5,2.2c-0.7,3.8-1.7,13.2,15.9,16.9c18-3.7,16.8-13.6,16.2-17.1
	c0.7-0.6,1.4-1.2,2.1-1.9c2.5,8.5,4.5,4.2,4.5,4.2s10.2-12.7,5.9-34.8l0,0c0-1.3,0-2.7-0.1-4.2v-0.1l0,0c-0.2-3.6-2.1-6.8-5.2-8.7
	C-629.5,548.5-637.1,545.4-648.4,545.4z"/>


<g id="top_half">
	<path id="head" class="fill-blue" d="M-649.7,521.1c-5.2-0.4-10.4,1.5-15.2,3.9c-1.1,0.6-2.2,1.3-3.2,2c-1.4,1.1-2.9,2.5-3.9,3.7
		c-3.6,4.5-5,9.8-3.7,14.4c0,0.2,0.1,0.4,0.1,0.5c-0.9,4-1,7.4-1.3,11.5c0,0-0.6,2.4,1.8,7.4c2.5,5.4,5.2,9.2,5.2,9.2
		s6.5,5.1,22.6,4.6h-0.7c16.1-0.5,22.2-6.1,22.2-6.1s2.5-4,4.6-9.5c2-5.2,1.3-7.6,1.3-7.6c-0.7-4.1-1-7.5-2.1-11.4
		c0-0.1,0.1-0.3,0.1-0.5c1-4.7-0.8-9.9-4.6-14.2c-1.1-1.2-2.7-2.4-4.2-3.4c-1.1-0.7-2.2-1.3-3.4-1.8
		C-639.2,521.9-644.6,520.4-649.7,521.1"/>

	<path id="ear_L" class="stroke-blue" d="M-668.9,527.8c-2.7-1.5-18.6-2.7-21.5-3.8"/>
	<path id="ear_R" class="stroke-blue" d="M-608,524c-2.9,1.1-18.8,2.3-21.5,3.8"/>

	<g id="beak">
		<g>
			<path class="fill-white" d="M-646.5,552.6c0.3,0,0.6,0,0.9,0.1h0.3l-0.2,0.4c-0.2,0.5-0.4,0.9-0.6,1.4s-0.4,0.9-0.7,1.3
				c-0.2,0.4-0.5,0.8-0.7,1.3l-0.8,1.2l-0.7,1.1l-0.8-1.1c-0.5-0.8-1.1-1.6-1.5-2.5c-0.2-0.4-0.5-0.9-0.7-1.3
				c-0.2-0.4-0.4-0.9-0.6-1.4l-0.2-0.4h0.3c0.3,0,0.6-0.1,0.9-0.1v0.1l-0.8,0.3v-0.1l3.3,4.8h-0.2l3.3-4.8v0.1L-646.5,552.6
				L-646.5,552.6z"/>
		</g>
		<path class="fill-white" d="M-649.6,550.6l0.5-0.8l0.5,0.8c0.5,0.8,1.2,1.5,2,2l0.8,0.3l-3.3,4.8l-3.3-4.8l0.8-0.3
			C-650.8,552.1-650.1,551.4-649.6,550.6z"/>
	</g>

	
	<g id="eye_R">
		<path class="fill-white" d="M-646.8,541L-646.8,541c1.6-5.6,8-10.2,13.6-13.3c1.9,1.2,3.6,2.6,5.1,4.3c3.3,3.9,4.7,8.6,3.7,12.7
			c-0.5,2.2-1.7,4.1-3.4,5.5c-3.5,3.1-6.9,4.5-10.1,4.2c-2.4-0.3-4.6-1.5-6.1-3.3C-646.8,547.7-647.6,544.3-646.8,541"/>
		<path class="fill-blue" d="M-635.6,548.6L-635.6,548.6c-3,0-5.4-2.3-5.6-5.4c-0.1-3,2.2-5.6,5.2-5.9c3.3-0.3,6.1,2.3,6.1,5.6
			C-630,546-632.5,548.6-635.6,548.6"/>
		<path class="fill-white" d="M-635.6,538.6c-2.9,0-5.1,2.8-4.2,5.8c0.4,1.3,1.5,2.3,2.8,2.8c3,1,5.8-1.3,5.8-4.2
			C-631.2,540.5-633.2,538.6-635.6,538.6z"/>
		<path class="fill-blue" d="M-634.6,540.5c-2.4-0.9-4.6,1.4-3.5,3.8c0.2,0.5,0.6,0.8,1.1,1.1c2.4,1.1,4.7-1.1,3.8-3.5
			C-633.4,541.2-633.9,540.7-634.6,540.5z"/>
	</g>
	<g id="eye_L">
		<path class="fill-white" d="M-650,540.2c0.9,3.3,0,6.7-2.8,10.1c-1.5,1.8-3.7,3-6.1,3.3c-3.2,0.3-6.6-1.1-10.1-4.2
			c-1.7-1.4-2.9-3.3-3.4-5.5c-1-4.1,0.4-8.8,3.7-12.7c1.5-1.7,3.2-3.1,5.1-4.3C-658,530-651.6,534.6-650,540.2L-650,540.2"/>
		<path class="fill-blue" d="M-661.1,547.8c-3.2,0-5.7-2.6-5.7-5.7c0-3.3,2.8-5.9,6.1-5.6c3,0.3,5.3,2.9,5.2,5.9
			C-655.6,545.5-658.1,547.8-661.1,547.8C-661.1,547.8-661.2,547.8-661.1,547.8"/>
		<path class="fill-white" d="M-665.6,542.2c0,2.9,2.8,5.1,5.8,4.2c1.3-0.4,2.3-1.5,2.8-2.8c1-3-1.3-5.8-4.2-5.8
			C-663.6,537.8-665.6,539.7-665.6,542.2z"/>
		<path class="fill-blue" d="M-663.6,541.1c-0.9,2.4,1.4,4.6,3.8,3.5c0.5-0.2,0.8-0.6,1.1-1.1c1.1-2.4-1.1-4.7-3.5-3.8
			C-662.9,539.9-663.5,540.4-663.6,541.1z"/>
	</g>
</g>
</svg>
